# xmcd CD database file
#
# Track frame offsets:
#	182
#	18655
#	36795
#	51045
#	66107
#	78325
#	92415
#	111627
#	124490
#	135055
#	151867
#
# Disc length: 2281 seconds
#
# Revision: 2
# Processed by: cddbd v1.5.1PL0 Copyright (c) Steve Scherf et al.
# Submitted via: CDex 1.51
#
DISCID=8808e70b
DTITLE=Twister Alley - Twister Alley
DYEAR=1993
DGENRE=Country
TTITLE0=Let It Be Love
TTITLE1=Pretty Thing
TTITLE2=Nothing In Common But Love
TTITLE3=Dance
TTITLE4=Young Love
TTITLE5=Twister Alley
TTITLE6=Redneck Ways (In The U.S.A.)
TTITLE7=Billy Bill
TTITLE8=Shame On Me
TTITLE9=I'm Outta Here
TTITLE10=Dance (Club Mix)
EXTD=YEAR: 1993
EXTT0=
EXTT1=
EXTT2=
EXTT3=
EXTT4=
EXTT5=
EXTT6=
EXTT7=
EXTT8=
EXTT9=
EXTT10=
PLAYORDER=
